<svg width="60" height="41" viewBox="0 0 60 41" fill="none" xmlns="http://www.w3.org/2000/svg">
<path fill-rule="evenodd" clip-rule="evenodd" d="M42.098 13.913C28.962 32.078 25.337 34.726 19.35 30.532L17.254 29.065L12.263 31.173L7.272 33.282L3.982 31.641C2.173 30.738 0.537 30 0.346 30C0.156 30 0 31.99 0 34.422V38.845L3.399 39.967C7.065 41.177 11.164 40.596 14.75 38.358L17 36.954L19.25 38.358C25.266 42.112 29.52 41.279 36.049 35.068L40.326 31H45.663H51V35V39H55.5H60V19.5V0H56.08H52.159L42.098 13.913ZM51 19V23H47.935H44.87L47.685 19.021C51.139 14.14 51 14.14 51 19Z" fill="#0066B3"/>
</svg>
