<svg width="74" height="79" viewBox="0 0 74 79" fill="none" xmlns="http://www.w3.org/2000/svg">
<g clip-path="url(#clip0_1822_147662)">
<path d="M67.025 16.93L39.55 1.065C37.085 -0.355 34.025 -0.355 31.555 1.065C29.09 2.49 27.56 5.14 27.56 7.985V10.055L25.77 9.02C23.305 7.6 20.245 7.6 17.775 9.02C15.31 10.445 13.78 13.095 13.78 15.945V18.015L11.99 16.98C9.525 15.56 6.465 15.56 3.995 16.98C1.53 18.405 0 21.055 0 23.905V73.615C0 75.045 0.829995 76.375 2.12 76.995C3.405 77.62 4.965 77.45 6.085 76.565L19.71 65.82L40.72 77.95C41.3 78.285 41.95 78.45 42.6 78.45C43.25 78.45 43.9 78.28 44.48 77.95C45.64 77.28 46.36 76.035 46.36 74.695V44.78C46.36 39.87 43.72 35.3 39.47 32.845L32.58 28.865V7.99C32.58 6.93 33.15 5.94 34.07 5.41C34.99 4.88 36.13 4.88 37.05 5.41L64.525 21.27C67.23 22.83 68.91 25.745 68.91 28.865V66.115C68.91 67.175 68.34 68.165 67.42 68.695L60.14 72.9V36.82C60.14 31.91 57.5 27.34 53.25 24.885L36.335 15.12V20.905L50.745 29.225C53.45 30.785 55.13 33.695 55.13 36.82V75.065C55.13 76.4 55.85 77.65 57.01 78.32C57.59 78.655 58.24 78.82 58.89 78.82C59.54 78.82 60.19 78.65 60.77 78.32L69.93 73.03C72.395 71.605 73.925 68.955 73.925 66.105V28.855C73.915 23.96 71.275 19.385 67.025 16.93ZM36.955 37.185C39.66 38.745 41.34 41.655 41.34 44.78V72.53L23.94 62.485L29.525 58.085C31.46 56.56 32.57 54.275 32.57 51.81V34.66L36.955 37.185ZM27.56 31.76V51.8C27.56 52.72 27.145 53.575 26.425 54.14L5.01 71.025V23.9C5.01 22.84 5.58 21.85 6.5 21.32C7.42 20.79 8.56 20.79 9.48 21.32L13.78 23.8V59.325L18.79 55.375V15.945C18.79 14.885 19.36 13.895 20.28 13.365C21.2 12.835 22.34 12.835 23.26 13.365L27.56 15.845V25.97L22.55 23.075V28.865L27.56 31.76Z" fill="#0052CD"/>
</g>
<defs>
<clipPath id="clip0_1822_147662">
<rect width="73.925" height="78.82" fill="white"/>
</clipPath>
</defs>
</svg>
